<svg width="20" height="20" viewBox="0 0 20 20" fill="none" xmlns="http://www.w3.org/2000/svg">
<path d="M10 3.33317L9.35219 4.41286C8.44978 5.91688 7.99857 6.66889 7.99857 7.49984C7.99857 8.33079 8.44978 9.0828 9.35219 10.5868L9.57125 10.9519C9.76272 11.271 9.85845 11.4306 10 11.4306C10.1415 11.4306 10.2373 11.271 10.4287 10.9519L10.6478 10.5868C11.5502 9.0828 12.0014 8.33079 12.0014 7.49984C12.0014 6.66889 11.5502 5.91688 10.6478 4.41286L10 3.33317ZM10 3.33317V1.6665" stroke="#01B6A3" stroke-width="2"/>
<path d="M16.7998 10.4984L15.5408 10.4772C13.7871 10.4477 12.9103 10.433 12.1906 10.8484C11.471 11.2639 11.0454 12.0307 10.194 13.5642L9.98738 13.9365C9.80675 14.2618 9.71644 14.4245 9.78722 14.5471C9.85799 14.6697 10.044 14.6728 10.4161 14.6791L10.8419 14.6862C12.5956 14.7157 13.4724 14.7305 14.1921 14.315C14.9117 13.8995 15.3373 13.1328 16.1887 11.5993L16.7998 10.4984ZM16.7998 10.4984L18.2432 9.66506" stroke="#01B6A3" stroke-width="2"/>
<path d="M3.20021 10.4984L4.45916 10.4772C6.21288 10.4477 7.08974 10.433 7.80937 10.8484C8.52899 11.2639 8.95465 12.0307 9.80596 13.5642L10.0126 13.9365C10.1932 14.2618 10.2836 14.4245 10.2128 14.5471C10.142 14.6697 9.95597 14.6728 9.58388 14.6791L9.15814 14.6862C7.40442 14.7157 6.52756 14.7305 5.80794 14.315C5.08831 13.8995 4.66266 13.1328 3.81134 11.5993L3.20021 10.4984ZM3.20021 10.4984L1.75684 9.66506" stroke="#01B6A3" stroke-width="2"/>
<path d="M10 12.5V18.75" stroke="#01B6A3" stroke-width="2"/>
</svg>
