<svg width="35" height="24" viewBox="0 0 35 24" fill="none" xmlns="http://www.w3.org/2000/svg">
<path d="M34.9919 8.45835C35.0706 6.2376 34.5729 4.03347 33.5451 2.05061C32.8478 1.23699 31.88 0.68793 30.8105 0.499095C26.3866 0.107378 21.9444 -0.0531743 17.503 0.0181268C13.0777 -0.0564105 8.65151 0.0989608 4.24317 0.483581C3.37161 0.638292 2.56505 1.03723 1.9219 1.6317C0.490988 2.91945 0.331998 5.1226 0.173007 6.98442C-0.057669 10.3319 -0.057669 13.6907 0.173007 17.0382C0.219003 18.0861 0.37889 19.1263 0.649979 20.1412C0.841682 20.9249 1.22954 21.6498 1.77881 22.2513C2.42633 22.8773 3.25168 23.2989 4.14777 23.4615C7.57547 23.8744 11.0292 24.0455 14.4822 23.9735C20.0468 24.0511 24.9278 23.9735 30.6992 23.5391C31.6173 23.3865 32.4659 22.9643 33.1318 22.3289C33.5769 21.8943 33.9093 21.3624 34.1016 20.7774C34.6702 19.0748 34.9495 17.2928 34.9283 15.5022C34.9919 14.6334 34.9919 9.38926 34.9919 8.45835ZM13.9098 16.4331V6.82927L23.322 11.6545C20.6828 13.0819 17.2009 14.6954 13.9098 16.4331Z" fill="white"/>
</svg>
