<svg width="20" height="20" viewBox="0 0 20 20" fill="none" xmlns="http://www.w3.org/2000/svg">
<path fill-rule="evenodd" clip-rule="evenodd" d="M7.79889 6.22656C6.93097 6.22656 6.22656 6.93097 6.22656 7.79889V12.2014C6.22656 13.0693 6.93097 13.7737 7.79889 13.7737H12.2014C13.0693 13.7737 13.7737 13.0693 13.7737 12.2014V7.79889C13.7737 6.93097 13.0693 6.22656 12.2014 6.22656H7.79889ZM8.11335 11.8869V8.11335H11.8869V11.8869H8.11335Z" fill="#00B4A5"/>
<path fill-rule="evenodd" clip-rule="evenodd" d="M7.79874 0C8.03227 0 8.25622 0.0927671 8.42135 0.257893C8.58648 0.42302 8.67924 0.646979 8.67924 0.880503V2.45283H11.3208V0.880503C11.3208 0.646979 11.4135 0.42302 11.5786 0.257893C11.7438 0.0927671 11.9677 0 12.2013 0C12.4348 0 12.6587 0.0927671 12.8239 0.257893C12.989 0.42302 13.0818 0.646979 13.0818 0.880503V2.45283H14.717C15.4676 2.45283 16.1875 2.75101 16.7182 3.28177C17.249 3.81254 17.5472 4.53241 17.5472 5.28302V6.91824H19.1195C19.2351 6.91824 19.3496 6.94101 19.4564 6.98526C19.5633 7.02951 19.6603 7.09437 19.7421 7.17613C19.8239 7.25789 19.8887 7.35496 19.933 7.46179C19.9772 7.56862 20 7.68311 20 7.79874C20 7.91437 19.9772 8.02887 19.933 8.1357C19.8887 8.24252 19.8239 8.33959 19.7421 8.42135C19.6603 8.50311 19.5633 8.56797 19.4564 8.61222C19.3496 8.65647 19.2351 8.67924 19.1195 8.67924H17.5472V11.3208H19.1195C19.353 11.3208 19.577 11.4135 19.7421 11.5786C19.9072 11.7438 20 11.9677 20 12.2013C20 12.4348 19.9072 12.6587 19.7421 12.8239C19.577 12.989 19.353 13.0818 19.1195 13.0818H17.5472V14.717C17.5472 15.4676 17.249 16.1875 16.7182 16.7182C16.1875 17.249 15.4676 17.5472 14.717 17.5472H13.0818V19.1195C13.0818 19.353 12.989 19.577 12.8239 19.7421C12.6587 19.9072 12.4348 20 12.2013 20C11.9677 20 11.7438 19.9072 11.5786 19.7421C11.4135 19.577 11.3208 19.353 11.3208 19.1195V17.5472H8.67924V19.1195C8.67924 19.353 8.58648 19.577 8.42135 19.7421C8.25622 19.9072 8.03227 20 7.79874 20C7.56522 20 7.34126 19.9072 7.17613 19.7421C7.01101 19.577 6.91824 19.353 6.91824 19.1195V17.5472H5.28302C4.53241 17.5472 3.81254 17.249 3.28177 16.7182C2.75101 16.1875 2.45283 15.4676 2.45283 14.717V13.0818H0.880503C0.646979 13.0818 0.42302 12.989 0.257893 12.8239C0.0927671 12.6587 0 12.4348 0 12.2013C0 11.9677 0.0927671 11.7438 0.257893 11.5786C0.42302 11.4135 0.646979 11.3208 0.880503 11.3208H2.45283V8.67924H0.880503C0.646979 8.67924 0.42302 8.58648 0.257893 8.42135C0.0927671 8.25622 0 8.03227 0 7.79874C0 7.56522 0.0927671 7.34126 0.257893 7.17613C0.42302 7.01101 0.646979 6.91824 0.880503 6.91824H2.45283V5.28302C2.45283 4.53241 2.75101 3.81254 3.28177 3.28177C3.81254 2.75101 4.53241 2.45283 5.28302 2.45283H6.91824V0.880503C6.91824 0.646979 7.01101 0.42302 7.17613 0.257893C7.34126 0.0927671 7.56522 0 7.79874 0ZM4.33962 5.28302C4.33962 5.03281 4.43902 4.79286 4.61594 4.61594C4.79286 4.43902 5.03281 4.33962 5.28302 4.33962H14.717C14.9672 4.33962 15.2071 4.43902 15.3841 4.61594C15.561 4.79286 15.6604 5.03281 15.6604 5.28302V14.717C15.6604 14.9672 15.561 15.2071 15.3841 15.3841C15.2071 15.561 14.9672 15.6604 14.717 15.6604H5.28302C5.03281 15.6604 4.79286 15.561 4.61594 15.3841C4.43902 15.2071 4.33962 14.9672 4.33962 14.717V5.28302Z" fill="#00B4A5"/>
</svg>
