<svg width="36" height="36" viewBox="0 0 36 36" fill="none" xmlns="http://www.w3.org/2000/svg">
<circle cx="18" cy="18" r="18" fill="#00B4A5" fill-opacity="0.25"/>
<path d="M20.2899 14.8312C20.3778 15.4736 20.9698 15.9231 21.6121 15.8352L22.6811 15.6889L19.9873 19.237C19.8565 19.4091 19.6111 19.4427 19.4389 19.3121L16.6432 17.1894C15.4384 16.2746 13.7201 16.5098 12.8053 17.7146L9.73613 21.7569C9.34408 22.2733 9.44484 23.0096 9.9612 23.4017C10.4776 23.7937 11.214 23.6929 11.606 23.1766L14.6752 19.1342C14.8059 18.9622 15.0513 18.9286 15.2235 19.0592L18.0192 21.1819C19.2241 22.0966 20.9423 21.8615 21.8571 20.6567L24.5511 17.1087L24.6973 18.1776C24.7852 18.82 25.3772 19.2694 26.0196 19.1815C26.6619 19.0936 27.1114 18.5016 27.0235 17.8593L26.493 13.9824C26.4051 13.3401 25.813 12.8906 25.1707 12.9785L21.2938 13.509C20.6515 13.5969 20.202 14.1889 20.2899 14.8312Z" fill="#00B4A5"/>
</svg>
