<svg width="20" height="20" viewBox="0 0 20 20" fill="none" xmlns="http://www.w3.org/2000/svg">
<g clip-path="url(#clip0_1507_7788)">
<path d="M18.8215 10.5538C18.7968 10.4979 18.2014 9.17437 16.8585 8.09066C16.0345 7.42568 14.8204 6.76972 13.1898 6.68966C14.6402 5.90595 15.4775 4.78434 15.9559 3.8174C16.7516 2.20959 16.7373 0.701776 16.7363 0.638409C16.7331 0.437399 16.6369 0.249251 16.4759 0.128982C16.315 0.00871214 16.1072 -0.0300757 15.9136 0.023729C12.7426 0.906759 11.1605 2.71605 10.3916 4.07834C10.145 4.51524 9.96454 4.93464 9.83195 5.3112C9.66898 4.94178 9.45343 4.53174 9.16838 4.10905C8.29383 2.81208 6.57296 1.13417 3.34191 0.505817C3.14461 0.467635 2.9407 0.522719 2.78972 0.655446C2.63881 0.788173 2.55794 0.983325 2.57073 1.18386C2.57477 1.24716 2.68016 2.75134 3.60104 4.29093C4.10575 5.13477 4.91754 6.08319 6.19902 6.74891C4.87269 6.94003 3.85895 7.51161 3.14151 8.09066C1.79861 9.17437 1.20319 10.498 1.17848 10.5538C1.0972 10.7376 1.10568 10.9487 1.20144 11.1254C1.2972 11.3021 1.46952 11.4244 1.66791 11.4565C2.27518 11.555 2.84366 11.5985 3.37525 11.5985C5.57727 11.5985 7.13801 10.849 8.1209 10.1404C8.44387 9.9075 8.72265 9.66676 8.96077 9.43484C9.58521 12.7597 9.08252 16.1259 7.50286 19.0425C7.39397 19.2435 7.39895 19.487 7.51592 19.6833C7.63289 19.8798 7.84461 20 8.07323 20H12.9205C13.2501 20 13.5274 19.7528 13.5649 19.4253C13.9141 16.3829 13.5328 13.3266 12.4856 10.5336C13.4626 11.1011 14.8305 11.5985 16.6247 11.5985C17.1561 11.5985 17.7249 11.5549 18.332 11.4565C18.5304 11.4244 18.7027 11.3021 18.7985 11.1254C18.8942 10.9487 18.9028 10.7375 18.8215 10.5538ZM15.3471 1.57396C15.1012 2.93666 14.202 5.40521 10.9256 6.1545C11.2592 4.95423 12.2769 2.74885 15.3471 1.57396ZM4.02952 2.00487C5.7875 2.5172 7.13989 3.44925 8.05828 4.78366C8.42286 5.31329 8.65511 5.82178 8.8003 6.22104C5.47424 5.73396 4.38238 3.34339 4.02952 2.00487ZM7.31235 9.12359C6.06198 10.0065 4.56016 10.3963 2.83693 10.2855C3.60481 9.20649 5.35134 7.48871 8.42306 8.11444C8.16259 8.4178 7.79578 8.78218 7.31235 9.12359ZM12.3328 18.7027H9.12043C10.5641 15.5334 10.9016 11.9579 10.0821 8.46285C11.8398 11.5139 12.6297 15.1036 12.3328 18.7027ZM12.6877 9.12359C12.2041 8.78211 11.8373 8.41767 11.5769 8.11444C14.6484 7.48865 16.3952 9.20656 17.163 10.2856C15.4406 10.3954 13.9379 10.0064 12.6877 9.12359Z" fill="#00B4A5"/>
</g>
<defs>
<clipPath id="clip0_1507_7788">
<rect width="20" height="20" fill="white"/>
</clipPath>
</defs>
</svg>
