<svg width="20" height="20" viewBox="0 0 20 20" fill="none" xmlns="http://www.w3.org/2000/svg">
<path d="M16.1046 4.81493L15.2731 5.3705L15.2731 5.3705L16.1046 4.81493ZM16.1046 13.5187L15.2731 12.9632L15.2731 12.9632L16.1046 13.5187ZM15.1849 14.4384L15.7405 15.2699L15.7405 15.2699L15.1849 14.4384ZM11.6663 14.999L11.662 13.999C11.1114 14.0014 10.6663 14.4484 10.6663 14.999H11.6663ZM11.6663 15.0002L12.5608 15.4474C12.6302 15.3085 12.6663 15.1554 12.6663 15.0002H11.6663ZM10.8941 16.5446L9.99968 16.0974V16.0974L10.8941 16.5446ZM9.10525 16.5446L9.99967 16.0974V16.0974L9.10525 16.5446ZM8.33301 15.0002H7.33301C7.33301 15.1554 7.36915 15.3085 7.43858 15.4474L8.33301 15.0002ZM8.33301 14.999H9.33301C9.33301 14.4484 8.88795 14.0014 8.33737 13.999L8.33301 14.999ZM4.81444 14.4384L4.25887 15.2699H4.25887L4.81444 14.4384ZM3.89478 13.5187L4.72625 12.9632L4.72625 12.9632L3.89478 13.5187ZM3.89478 4.81493L3.06331 4.25936L3.06331 4.25936L3.89478 4.81493ZM4.81444 3.89526L4.25887 3.06379L4.25887 3.06379L4.81444 3.89526ZM15.1849 3.89526L15.7405 3.06379V3.06379L15.1849 3.89526ZM17.6663 9.16683C17.6663 8.01726 17.6676 7.07981 17.591 6.32716C17.5127 5.55781 17.345 4.87143 16.936 4.25936L15.2731 5.3705C15.4259 5.59917 15.5391 5.91836 15.6013 6.52957C15.6651 7.1575 15.6663 7.97563 15.6663 9.16683H17.6663ZM16.936 14.0743C17.345 13.4622 17.5127 12.7758 17.591 12.0065C17.6676 11.2539 17.6663 10.3164 17.6663 9.16683H15.6663C15.6663 10.358 15.6651 11.1762 15.6013 11.8041C15.5391 12.4153 15.4259 12.7345 15.2731 12.9632L16.936 14.0743ZM15.7405 15.2699C16.2136 14.9537 16.6199 14.5475 16.936 14.0743L15.2731 12.9632C15.1029 13.2179 14.8841 13.4367 14.6293 13.6069L15.7405 15.2699ZM11.6707 15.999C12.565 15.9951 13.3236 15.9785 13.9614 15.8904C14.6152 15.8 15.2059 15.627 15.7405 15.2699L14.6293 13.6069C14.4294 13.7405 14.1599 13.8439 13.6876 13.9092C13.1992 13.9767 12.5658 13.9951 11.662 13.999L11.6707 15.999ZM12.6663 15.0002V14.999H10.6663V15.0002H12.6663ZM11.7885 16.9919L12.5608 15.4474L10.7719 14.5529L9.99968 16.0974L11.7885 16.9919ZM8.21082 16.9919C8.94787 18.466 11.0515 18.4659 11.7885 16.9919L9.99968 16.0974L9.99967 16.0974L8.21082 16.9919ZM7.43858 15.4474L8.21082 16.9919L9.99967 16.0974L9.22744 14.5529L7.43858 15.4474ZM7.33301 14.999V15.0002H9.33301V14.999H7.33301ZM4.25887 15.2699C4.79342 15.627 5.3841 15.8 6.03794 15.8904C6.6757 15.9785 7.43436 15.9951 8.32865 15.999L8.33737 13.999C7.43357 13.9951 6.80018 13.9767 6.31179 13.9092C5.83948 13.8439 5.56992 13.7405 5.37001 13.6069L4.25887 15.2699ZM3.06331 14.0743C3.37946 14.5475 3.78571 14.9537 4.25887 15.2699L5.37001 13.6069C5.11523 13.4367 4.89648 13.2179 4.72625 12.9632L3.06331 14.0743ZM2.33301 9.16683C2.33301 10.3164 2.3318 11.2539 2.40836 12.0065C2.48663 12.7758 2.65433 13.4622 3.06331 14.0743L4.72625 12.9632C4.57345 12.7345 4.46027 12.4153 4.39809 11.8041C4.33422 11.1762 4.33301 10.358 4.33301 9.16683H2.33301ZM3.06331 4.25936C2.65433 4.87143 2.48663 5.55781 2.40836 6.32716C2.3318 7.07981 2.33301 8.01726 2.33301 9.16683H4.33301C4.33301 7.97563 4.33422 7.1575 4.39809 6.52957C4.46027 5.91836 4.57345 5.59917 4.72625 5.3705L3.06331 4.25936ZM4.25887 3.06379C3.78571 3.37995 3.37946 3.7862 3.06331 4.25936L4.72625 5.3705C4.89648 5.11572 5.11523 4.89697 5.37001 4.72673L4.25887 3.06379ZM9.16634 2.3335C8.01677 2.3335 7.07932 2.33229 6.32668 2.40885C5.55732 2.48712 4.87094 2.65482 4.25887 3.06379L5.37001 4.72673C5.59869 4.57394 5.91787 4.46076 6.52909 4.39858C7.15702 4.3347 7.97514 4.3335 9.16634 4.3335V2.3335ZM10.833 2.3335H9.16634V4.3335H10.833V2.3335ZM15.7405 3.06379C15.1284 2.65482 14.442 2.48712 13.6727 2.40885C12.92 2.33229 11.9826 2.3335 10.833 2.3335V4.3335C12.0242 4.3335 12.8423 4.3347 13.4703 4.39858C14.0815 4.46076 14.4007 4.57394 14.6293 4.72673L15.7405 3.06379ZM16.936 4.25936C16.6199 3.7862 16.2136 3.37995 15.7405 3.06379L14.6293 4.72673C14.8841 4.89697 15.1029 5.11572 15.2731 5.3705L16.936 4.25936Z" fill="#00B4A5"/>
<circle cx="13.3333" cy="9.16683" r="0.833333" fill="#00B4A5" stroke="#00B4A5" stroke-linecap="round"/>
<circle cx="10.0003" cy="9.16683" r="0.833333" fill="#00B4A5" stroke="#00B4A5" stroke-linecap="round"/>
<circle cx="6.66634" cy="9.16683" r="0.833333" fill="#00B4A5" stroke="#00B4A5" stroke-linecap="round"/>
</svg>
