<svg width="20" height="20" viewBox="0 0 20 20" fill="none" xmlns="http://www.w3.org/2000/svg">
<path d="M10 0C8.02219 0 6.08879 0.58649 4.4443 1.6853C2.79981 2.78412 1.51809 4.3459 0.761209 6.17316C0.00433288 8.00043 -0.1937 10.0111 0.192152 11.9509C0.578004 13.8907 1.53041 15.6725 2.92894 17.0711C4.32746 18.4696 6.10929 19.422 8.0491 19.8078C9.98891 20.1937 11.9996 19.9957 13.8268 19.2388C15.6541 18.4819 17.2159 17.2002 18.3147 15.5557C19.4135 13.9112 20 11.9778 20 10C19.9969 7.34879 18.9423 4.80707 17.0676 2.93239C15.1929 1.0577 12.6512 0.0031277 10 0ZM10 18.1818C8.38179 18.1818 6.79992 17.702 5.45443 16.8029C4.10894 15.9039 3.06025 14.6261 2.44099 13.131C1.82173 11.636 1.6597 9.99092 1.9754 8.40381C2.29109 6.81669 3.07034 5.35883 4.21458 4.21458C5.35883 3.07033 6.81669 2.29109 8.40381 1.97539C9.99093 1.6597 11.636 1.82172 13.131 2.44099C14.6261 3.06025 15.9039 4.10893 16.8029 5.45442C17.702 6.79992 18.1818 8.38179 18.1818 10C18.1792 12.1691 17.3163 14.2487 15.7825 15.7825C14.2487 17.3163 12.1691 18.1792 10 18.1818ZM10 3.18182C8.65149 3.18182 7.33327 3.5817 6.21202 4.33089C5.09078 5.08008 4.21688 6.14493 3.70082 7.39079C3.18477 8.63665 3.04975 10.0076 3.31283 11.3302C3.57591 12.6528 4.22528 13.8676 5.17882 14.8212C6.13236 15.7747 7.34724 16.4241 8.66984 16.6872C9.99244 16.9503 11.3633 16.8152 12.6092 16.2992C13.8551 15.7831 14.9199 14.9092 15.6691 13.788C16.4183 12.6667 16.8182 11.3485 16.8182 10C16.8163 8.1923 16.0973 6.45918 14.8191 5.18094C13.5408 3.9027 11.8077 3.18374 10 3.18182ZM10 15C9.0111 15 8.0444 14.7068 7.22215 14.1573C6.39991 13.6079 5.75904 12.827 5.38061 11.9134C5.00217 10.9998 4.90315 9.99445 5.09608 9.02455C5.289 8.05464 5.76521 7.16373 6.46447 6.46446C7.16373 5.7652 8.05465 5.289 9.02455 5.09607C9.99446 4.90315 10.9998 5.00216 11.9134 5.3806C12.8271 5.75904 13.6079 6.3999 14.1573 7.22215C14.7068 8.04439 15 9.01109 15 10C14.9986 11.3256 14.4713 12.5966 13.5339 13.5339C12.5966 14.4713 11.3256 14.9986 10 15ZM10 6.36364C9.2808 6.36364 8.57774 6.5769 7.97975 6.97647C7.38175 7.37604 6.91567 7.94396 6.64044 8.60842C6.36521 9.27288 6.2932 10.004 6.43351 10.7094C6.57382 11.4148 6.92015 12.0627 7.42871 12.5713C7.93726 13.0799 8.5852 13.4262 9.29058 13.5665C9.99597 13.7068 10.7271 13.6348 11.3916 13.3596C12.056 13.0843 12.624 12.6182 13.0235 12.0203C13.4231 11.4223 13.6364 10.7192 13.6364 10C13.6364 9.03557 13.2533 8.11065 12.5713 7.4287C11.8893 6.74675 10.9644 6.36364 10 6.36364ZM10 11.8182C9.6404 11.8182 9.28887 11.7115 8.98988 11.5118C8.69088 11.312 8.45784 11.028 8.32022 10.6958C8.18261 10.3636 8.1466 9.99798 8.21676 9.64529C8.28691 9.2926 8.46008 8.96863 8.71435 8.71435C8.96863 8.46007 9.2926 8.28691 9.64529 8.21675C9.99799 8.1466 10.3636 8.1826 10.6958 8.32022C11.028 8.45783 11.312 8.69087 11.5118 8.98987C11.7115 9.28887 11.8182 9.6404 11.8182 10C11.8182 10.4822 11.6266 10.9447 11.2857 11.2856C10.9447 11.6266 10.4822 11.8182 10 11.8182Z" fill="#00B4A5"/>
</svg>
