<svg width="623" height="308" viewBox="0 0 623 308" fill="none" xmlns="http://www.w3.org/2000/svg">
<g clip-path="url(#clip0_276_619)">
<path d="M118.923 -0.107178C151.723 -0.107178 181.42 13.1896 202.917 34.6868C224.414 56.184 237.711 85.8805 237.711 118.681C237.711 151.481 224.414 181.178 202.917 202.675C181.42 224.173 151.723 237.469 118.923 237.469C86.1219 237.469 56.4254 224.173 34.9282 202.675C13.431 181.178 0.134277 151.481 0.134277 118.681C0.134277 85.8805 13.431 56.184 34.9282 34.6868C56.4254 13.1896 86.1219 -0.107178 118.923 -0.107178ZM168.131 69.4728C155.539 56.8805 138.141 49.092 118.923 49.092C99.704 49.092 82.3061 56.8805 69.7142 69.4728C57.1224 82.0647 49.3339 99.4626 49.3339 118.681C49.3339 137.9 57.1224 155.298 69.7142 167.89C82.3061 180.482 99.704 188.27 118.923 188.27C138.141 188.27 155.539 180.482 168.131 167.89C180.723 155.298 188.512 137.9 188.512 118.681C188.512 99.4626 180.723 82.0647 168.131 69.4728Z" fill="#01B6A2"/>
<path fill-rule="evenodd" clip-rule="evenodd" d="M239.912 147.007V282.552C239.912 296.57 228.442 308.042 214.422 308.042C200.402 308.042 188.931 296.572 188.931 282.552C188.931 225.787 188.931 169.022 188.931 112.257L239.912 147.007Z" fill="#01B6A2"/>
<path fill-rule="evenodd" clip-rule="evenodd" d="M623.028 -0.107178H623.028V211.979C623.028 225.999 611.558 237.469 597.538 237.469H597.537C583.518 237.469 572.048 225.999 572.048 211.979V50.8734C572.048 22.8338 594.989 -0.107178 623.028 -0.107178Z" fill="#05A18F"/>
<path d="M464.484 128.392C469.987 128.392 474.447 123.931 474.447 118.429C474.447 112.926 469.987 108.465 464.484 108.465C458.982 108.465 454.521 112.926 454.521 118.429C454.521 123.931 458.982 128.392 464.484 128.392Z" fill="#FA6E00"/>
<path d="M495.762 128.897C501.264 128.897 505.724 124.437 505.724 118.935C505.724 113.433 501.264 108.973 495.762 108.973C490.261 108.973 485.801 113.433 485.801 118.935C485.801 124.437 490.261 128.897 495.762 128.897Z" fill="#FA6E00"/>
<path d="M527.774 128.785C533.276 128.785 537.737 124.324 537.737 118.822C537.737 113.32 533.276 108.859 527.774 108.859C522.271 108.859 517.81 113.32 517.81 118.822C517.81 124.324 522.271 128.785 527.774 128.785Z" fill="#FA6E00"/>
<path d="M307.719 -0.107178C340.519 -0.107178 370.217 13.1896 391.714 34.6868C394.128 37.1008 396.961 39.932 399.161 42.5459C391.406 52.7522 385.286 63.9441 380.454 76.8633C367.66 108.176 385.725 95.9325 356.928 69.4728C344.336 56.8805 326.938 49.092 307.719 49.092C288.501 49.092 271.103 56.8805 258.511 69.4728C245.919 82.0647 238.13 99.4626 238.13 118.681C238.13 137.9 245.919 155.298 258.511 167.89C271.103 180.482 288.501 188.27 307.719 188.27C326.938 188.27 344.336 180.482 356.928 167.89C369.52 155.298 377.308 137.9 377.308 118.681C377.341 93.4089 387.482 69.3624 400.926 48.2783L400.931 48.2715L400.995 48.1702L401.065 48.0625L401.078 48.0413L401.133 47.9559L401.202 47.8501L401.226 47.8135L401.271 47.7443L401.339 47.6392L401.372 47.5886L401.407 47.5345L401.475 47.4306L401.517 47.3663L401.543 47.3274L401.61 47.225L401.662 47.1467L401.678 47.1222L401.745 47.0205L401.805 46.9294L401.812 46.9196L401.878 46.8191L401.945 46.7193L401.948 46.7147L402.011 46.6199L402.078 46.5205C417.399 66.5244 426.507 91.5392 426.507 118.681C426.507 151.481 413.211 181.178 391.714 202.675C370.217 224.173 340.519 237.469 307.719 237.469C274.918 237.469 245.222 224.173 223.725 202.675C202.228 181.178 188.931 151.481 188.931 118.681C188.931 85.8805 202.228 56.184 223.725 34.6868C245.222 13.1896 274.918 -0.107178 307.719 -0.107178Z" fill="#01B6A2"/>
<path d="M496.129 -0.107178C528.929 -0.107178 558.626 13.1896 580.123 34.6868C601.621 56.184 614.917 85.8805 614.917 118.681C614.917 151.481 601.621 181.178 580.123 202.675C558.626 224.173 528.929 237.469 496.129 237.469C463.328 237.469 433.632 224.173 412.135 202.675C390.638 181.178 377.341 151.481 377.341 118.681C377.341 85.8805 390.638 56.184 412.135 34.6868C433.632 13.1896 463.328 -0.107178 496.129 -0.107178ZM545.337 69.4728C532.746 56.8805 515.348 49.092 496.129 49.092C476.911 49.092 459.513 56.8805 446.92 69.4728C434.329 82.0647 426.54 99.4626 426.54 118.681C426.54 137.9 434.329 155.298 446.92 167.89C459.513 180.482 476.911 188.27 496.129 188.27C507.074 188.27 517.429 185.743 526.641 181.242L555.79 183.623L552.78 159.107C560.925 147.712 565.718 133.757 565.718 118.681C565.718 99.4626 557.93 82.0647 545.337 69.4728Z" fill="#05A18F"/>
</g>
<defs>
<clipPath id="clip0_276_619">
<rect width="623" height="308" fill="white"/>
</clipPath>
</defs>
</svg>
