<svg width="21" height="22" viewBox="0 0 21 22" fill="none" xmlns="http://www.w3.org/2000/svg">
<path d="M9.18957 4.87109L11.3517 8.74206L9.18957 12.613H5.94634L3.78418 8.74206L5.94634 4.87109H9.18957Z" stroke="#00B4A5" stroke-width="1.8" stroke-linecap="round" stroke-linejoin="round"/>
<path d="M14.5948 1L16.757 4.87097L14.5948 8.74194H11.3516L9.18945 4.87097L11.3516 1H14.5948Z" stroke="#00B4A5" stroke-width="1.8" stroke-linecap="round" stroke-linejoin="round"/>
<path d="M14.5947 16.4839L16.7569 20.3549" stroke="#00B4A5" stroke-width="1.8" stroke-linecap="round" stroke-linejoin="round"/>
<path d="M3.78418 1L5.94634 4.87097" stroke="#00B4A5" stroke-width="1.8" stroke-linecap="round" stroke-linejoin="round"/>
<path d="M11.3516 16.4839L10.2705 18.4194" stroke="#00B4A5" stroke-width="1.8" stroke-linecap="round" stroke-linejoin="round"/>
<path d="M5.94631 12.6128L4.86523 14.5483" stroke="#00B4A5" stroke-width="1.8" stroke-linecap="round" stroke-linejoin="round"/>
<path d="M3.7842 8.74219H2.70312" stroke="#00B4A5" stroke-width="1.8" stroke-linecap="round" stroke-linejoin="round"/>
<path d="M16.7568 12.6128H20.0001" stroke="#00B4A5" stroke-width="1.8" stroke-linecap="round" stroke-linejoin="round"/>
<path d="M14.5948 8.74219L16.757 12.6132L14.5948 16.4841H11.3516L9.18945 12.6132L11.3516 8.74219H14.5948Z" stroke="#00B4A5" stroke-width="1.8" stroke-linecap="round" stroke-linejoin="round"/>
<path d="M9.18898 20.9998C9.48751 20.9998 9.72952 20.7109 9.72952 20.3546C9.72952 19.9983 9.48751 19.7095 9.18898 19.7095C8.89045 19.7095 8.64844 19.9983 8.64844 20.3546C8.64844 20.7109 8.89045 20.9998 9.18898 20.9998Z" fill="#00B4A5"/>
<path d="M3.7837 17.1292C4.08224 17.1292 4.32424 16.8403 4.32424 16.484C4.32424 16.1277 4.08224 15.8389 3.7837 15.8389C3.48517 15.8389 3.24316 16.1277 3.24316 16.484C3.24316 16.8403 3.48517 17.1292 3.7837 17.1292Z" fill="#00B4A5"/>
<path d="M0.540539 9.387C0.839071 9.387 1.08108 9.09815 1.08108 8.74184C1.08108 8.38553 0.839071 8.09668 0.540539 8.09668C0.242008 8.09668 0 8.38553 0 8.74184C0 9.09815 0.242008 9.387 0.540539 9.387Z" fill="#00B4A5"/>
</svg>
