<svg width="18" height="20" viewBox="0 0 18 20" fill="none" xmlns="http://www.w3.org/2000/svg">
<mask id="path-1-inside-1_1507_7783" fill="white">
<path d="M5.60014 8.30897e-05C4.41411 0.00482721 3.31483 0.2461 2.77874 0.413499C2.77874 0.413499 7.64079 1.2383 8.04539 4.5951C4.35108 -0.731867 0.321289 5.71065 0.321289 5.71065C1.16168 5.49039 3.56762 4.8357 5.17385 5.11221C6.27313 5.3013 7.34462 6.29756 7.29853 6.28469C4.6791 6.92921 0.517153 18.5875 1.22403 19.5343C1.85432 20.2582 2.48529 20.0115 3.1149 19.6441C3.42665 17.1731 5.86107 6.33281 8.8397 7.20776H8.84105C9.09181 7.29383 9.32902 7.44429 9.34189 7.67404C9.36629 8.11253 9.08368 8.82821 9.1501 9.32567C9.3053 10.4798 9.53098 10.8817 9.85968 11.2843C10.6445 10.8431 11.3961 9.2518 11.5513 8.427C12.2548 8.73536 13.3852 9.44834 14.3083 12.0983C14.7909 9.61506 14.0948 7.65642 11.8122 6.78689C12.801 6.35924 17.1046 8.52188 17.6299 9.72756C18.1409 7.55408 14.5259 4.89466 11.5167 5.03631C12.0935 4.88585 12.7278 5.06138 13.331 4.61747C14.1409 4.02106 15.085 3.50802 15.9647 2.95635C13.0057 1.66934 10.2751 2.30505 10.0827 3.63679C9.93152 0.679848 7.6374 -0.00872742 5.60149 8.30897e-05H5.60014Z"/>
</mask>
<path d="M5.60014 8.30897e-05V-0.999925L5.59614 -0.999909L5.60014 8.30897e-05ZM2.77874 0.413499L2.48067 -0.541045L2.61149 1.39941L2.77874 0.413499ZM8.04539 4.5951L7.22367 5.16498L9.03821 4.47544L8.04539 4.5951ZM0.321289 5.71065L-0.526519 5.18035L-1.86294 7.3169L0.574822 6.67798L0.321289 5.71065ZM5.17385 5.11221L5.00419 6.09772L5.00433 6.09774L5.17385 5.11221ZM7.29853 6.28469L7.56764 5.32158L7.31466 5.25089L7.05961 5.31365L7.29853 6.28469ZM1.22403 19.5343L0.422721 20.1326L0.445201 20.1627L0.469878 20.191L1.22403 19.5343ZM3.1149 19.6441L3.61883 20.5079L4.04524 20.2591L4.10703 19.7693L3.1149 19.6441ZM8.8397 7.20776L8.55786 8.16722L8.69586 8.20776H8.8397V7.20776ZM8.84105 7.20776L9.1657 6.26192L9.00789 6.20776H8.84105V7.20776ZM9.34189 7.67404L10.3404 7.61848L10.3403 7.61808L9.34189 7.67404ZM9.1501 9.32567L8.15889 9.45801L8.15902 9.45894L9.1501 9.32567ZM9.85968 11.2843L9.08508 11.9168L9.61683 12.568L10.3497 12.156L9.85968 11.2843ZM11.5513 8.427L11.9528 7.51112L10.8011 7.00629L10.5685 8.24207L11.5513 8.427ZM14.3083 12.0983L13.364 12.4272L14.583 15.9269L15.2899 12.289L14.3083 12.0983ZM11.8122 6.78689L11.4153 5.86905L9.15726 6.84561L11.4562 7.72138L11.8122 6.78689ZM17.6299 9.72756L16.7131 10.1269L17.9147 12.8853L18.6033 9.95643L17.6299 9.72756ZM11.5167 5.03631L11.2643 4.06869L11.5638 6.0352L11.5167 5.03631ZM13.331 4.61747L13.9238 5.42287L13.924 5.42269L13.331 4.61747ZM15.9647 2.95635L16.496 3.80354L18.1028 2.79584L16.3635 2.03934L15.9647 2.95635ZM10.0827 3.63679L9.08396 3.68784L11.0724 3.77983L10.0827 3.63679ZM5.60149 8.30897e-05V1.00009L5.60582 1.00007L5.60149 8.30897e-05ZM5.59614 -0.999909C4.29468 -0.994703 3.09574 -0.733106 2.48067 -0.541045L3.07681 1.36804C3.53392 1.22531 4.53354 1.00436 5.60414 1.00008L5.59614 -0.999909ZM2.77874 0.413499C2.61149 1.39941 2.61119 1.39936 2.61091 1.39932C2.61084 1.3993 2.61058 1.39926 2.61044 1.39924C2.61017 1.39919 2.60996 1.39915 2.60983 1.39913C2.60956 1.39908 2.60958 1.39909 2.60988 1.39914C2.61049 1.39925 2.61222 1.39955 2.61504 1.40006C2.62069 1.40108 2.63069 1.40292 2.64477 1.40562C2.67296 1.41104 2.71736 1.4199 2.77577 1.43262C2.89277 1.45808 3.06484 1.49874 3.2744 1.55758C3.69667 1.67616 4.2553 1.86422 4.81724 2.14197C5.98657 2.71995 6.91204 3.54879 7.05258 4.71477L9.03821 4.47544C8.77414 2.28462 7.06628 1.02265 5.70345 0.34903C4.99929 0.000982283 4.31712 -0.226965 3.81512 -0.367936C3.56254 -0.438862 3.3516 -0.488873 3.20113 -0.521625C3.1258 -0.538022 3.06535 -0.550152 3.02212 -0.558459C3.00049 -0.562614 2.98314 -0.565817 2.97037 -0.568124C2.96398 -0.569277 2.95873 -0.570207 2.95465 -0.57092C2.95262 -0.571276 2.95087 -0.571578 2.94943 -0.571827C2.94871 -0.571952 2.94806 -0.572063 2.94749 -0.572161C2.9472 -0.57221 2.94683 -0.572273 2.94668 -0.572298C2.94633 -0.572358 2.94599 -0.572415 2.77874 0.413499ZM8.86712 4.02522C7.84291 2.54838 6.68641 1.73656 5.43962 1.53492C4.21019 1.33609 3.10876 1.76652 2.25712 2.31415C1.40394 2.86276 0.710222 3.58534 0.241575 4.1457C0.0037165 4.43011 -0.184415 4.68274 -0.314381 4.86623C-0.379506 4.95818 -0.430418 5.03332 -0.466055 5.08708C-0.483884 5.11398 -0.497922 5.13557 -0.508036 5.15129C-0.513094 5.15915 -0.517174 5.16555 -0.520259 5.17042C-0.521802 5.17285 -0.523096 5.1749 -0.52414 5.17656C-0.524662 5.17739 -0.525121 5.17812 -0.525518 5.17875C-0.525716 5.17906 -0.525967 5.17946 -0.526066 5.17962C-0.5263 5.18 -0.526519 5.18035 0.321289 5.71065C1.1691 6.24095 1.16891 6.24125 1.16874 6.24153C1.1687 6.24159 1.16854 6.24184 1.16846 6.24196C1.16831 6.2422 1.16822 6.24235 1.16819 6.2424C1.16813 6.2425 1.1683 6.24223 1.16871 6.24158C1.16952 6.24029 1.17128 6.23753 1.17396 6.23337C1.17932 6.22503 1.18836 6.2111 1.20095 6.19211C1.22615 6.1541 1.26542 6.09603 1.3177 6.02222C1.42254 5.8742 1.5781 5.66512 1.77576 5.42878C2.17815 4.94764 2.72277 4.39252 3.33883 3.99638C3.95643 3.59925 4.55513 3.41786 5.12031 3.50926C5.66813 3.59786 6.40072 3.97834 7.22367 5.16498L8.86712 4.02522ZM0.574822 6.67798C1.00058 6.56639 1.77183 6.35881 2.6305 6.21056C3.51131 6.0585 4.3756 5.9895 5.00419 6.09772L5.3435 4.12671C4.36587 3.95841 3.22408 4.0785 2.29025 4.23972C1.33431 4.40475 0.482389 4.63465 0.0677558 4.74332L0.574822 6.67798ZM5.00433 6.09774C5.34712 6.1567 5.74991 6.36126 6.10422 6.60167C6.27144 6.71514 6.40666 6.82206 6.49266 6.89522C6.53681 6.93277 6.56118 6.95564 6.5672 6.9615C6.57521 6.96932 6.55629 6.95176 6.52925 6.91963C6.52109 6.90994 6.50582 6.8914 6.48781 6.86653C6.4759 6.85008 6.43356 6.7915 6.39417 6.70745C6.37553 6.66771 6.33538 6.57638 6.31419 6.4521C6.29584 6.34454 6.26443 6.05336 6.45278 5.75313C6.66874 5.40889 7.00534 5.30862 7.20296 5.28947C7.37957 5.27235 7.51603 5.30716 7.56764 5.32158L7.02943 7.2478C7.08176 7.26242 7.2188 7.2973 7.39586 7.28014C7.59393 7.26095 7.93085 7.16051 8.14698 6.81599C8.33551 6.51548 8.30415 6.22389 8.28571 6.11581C8.26442 5.991 8.22405 5.89904 8.20506 5.85854C8.16495 5.77298 8.12138 5.71242 8.10771 5.69353C8.08795 5.66624 8.0704 5.64482 8.05944 5.6318C8.02123 5.5864 7.98294 5.54857 7.96392 5.53002C7.91586 5.48313 7.8555 5.4288 7.7885 5.3718C7.65221 5.25587 7.45948 5.10432 7.22719 4.9467C6.78245 4.64493 6.09985 4.25681 5.34337 4.12669L5.00433 6.09774ZM7.05961 5.31365C6.45242 5.46305 5.9381 5.88333 5.53138 6.31156C5.10458 6.76093 4.6895 7.33432 4.29644 7.96448C3.50848 9.22774 2.74048 10.8308 2.08898 12.416C1.4362 14.0044 0.885497 15.6114 0.540766 16.8961C0.369365 17.5349 0.241724 18.1202 0.182357 18.5957C0.152957 18.8312 0.136146 19.0712 0.148546 19.2925C0.158411 19.4686 0.192873 19.8247 0.422721 20.1326L2.02533 18.9361C2.16682 19.1256 2.15096 19.2797 2.14541 19.1807C2.1424 19.1269 2.14508 19.0187 2.16695 18.8435C2.21012 18.4977 2.31213 18.0119 2.47243 17.4145C2.79112 16.2268 3.31207 14.7014 3.93885 13.1763C4.56691 11.6481 5.28636 10.1565 5.99339 9.02294C6.34783 8.45471 6.68212 8.00414 6.98155 7.68889C7.30104 7.35249 7.48979 7.26745 7.53746 7.25572L7.05961 5.31365ZM0.469878 20.191C0.95393 20.7469 1.55341 21.0333 2.22392 20.9969C2.79933 20.9657 3.29623 20.6961 3.61883 20.5079L2.61097 18.7804C2.47005 18.8626 2.3606 18.9192 2.26875 18.9562C2.17796 18.9928 2.13112 18.999 2.11551 18.9999C2.10918 19.0002 2.10931 18.9996 2.11339 19.0004C2.1178 19.0012 2.1195 19.0022 2.1167 19.0009C2.11197 18.9987 2.06325 18.9753 1.97818 18.8776L0.469878 20.191ZM4.10703 19.7693C4.254 18.6044 4.92419 15.3455 5.92092 12.502C6.42184 11.073 6.97922 9.82598 7.55179 9.0076C7.83911 8.59695 8.0872 8.35745 8.2767 8.24043C8.43993 8.13964 8.51186 8.15371 8.55786 8.16722L9.12153 6.24829C8.42287 6.04307 7.76715 6.2045 7.2259 6.53872C6.71093 6.85671 6.27771 7.33988 5.91306 7.86107C5.1817 8.90639 4.55251 10.3598 4.03352 11.8404C2.99045 14.8161 2.28755 18.2128 2.12276 19.519L4.10703 19.7693ZM8.8397 8.20776H8.84105V6.20776H8.8397V8.20776ZM8.5164 8.15359C8.57792 8.17471 8.57529 8.18432 8.53946 8.15437C8.49644 8.11842 8.35736 7.97793 8.34346 7.73L10.3403 7.61808C10.3136 7.14039 10.0494 6.80979 9.8219 6.61966C9.60155 6.43553 9.35494 6.32688 9.1657 6.26192L8.5164 8.15359ZM8.34344 7.72959C8.34321 7.72552 8.34402 7.73618 8.34146 7.76659C8.33896 7.7963 8.33405 7.83576 8.32564 7.88787C8.30757 7.99988 8.28269 8.11678 8.24973 8.28125C8.19644 8.54717 8.09989 9.01606 8.15889 9.45801L10.1413 9.19333C10.1339 9.13782 10.1454 9.00014 10.2107 8.67424C10.2371 8.54279 10.2741 8.36746 10.3001 8.20641C10.3258 8.04719 10.3525 7.83624 10.3404 7.61848L8.34344 7.72959ZM8.15902 9.45894C8.24224 10.0779 8.35169 10.5553 8.51014 10.9552C8.67633 11.3747 8.87892 11.6643 9.08508 11.9168L10.6343 10.6519C10.5117 10.5018 10.4371 10.3892 10.3695 10.2185C10.2942 10.0283 10.2132 9.72765 10.1412 9.1924L8.15902 9.45894ZM10.3497 12.156C11.0005 11.7902 11.4967 11.0661 11.8181 10.4809C12.1585 9.86109 12.4316 9.15618 12.5341 8.61192L10.5685 8.24207C10.5158 8.52261 10.3355 9.02576 10.0651 9.51812C9.77567 10.0451 9.50372 10.3372 9.36963 10.4126L10.3497 12.156ZM11.1498 9.34287C11.4013 9.45311 11.7302 9.63175 12.0992 10.048C12.4788 10.4761 12.9343 11.1938 13.364 12.4272L15.2527 11.7693C14.7592 10.3528 14.188 9.38907 13.5957 8.7211C12.9929 8.04128 12.4048 7.70925 11.9528 7.51112L11.1498 9.34287ZM15.2899 12.289C15.5555 10.9225 15.5197 9.58976 15.0128 8.43542C14.4936 7.25292 13.5292 6.37086 12.1682 5.85239L11.4562 7.72138C12.3778 8.07244 12.9028 8.60447 13.1816 9.23948C13.4728 9.90264 13.5437 10.7909 13.3267 11.9075L15.2899 12.289ZM12.2092 7.70472C12.1007 7.75165 12.0734 7.72144 12.2286 7.7364C12.3578 7.74885 12.5436 7.78576 12.7832 7.85602C13.26 7.9958 13.8494 8.23748 14.4447 8.53764C15.0387 8.83716 15.6056 9.17824 16.0425 9.50239C16.2611 9.66458 16.4326 9.81182 16.5547 9.93672C16.6866 10.0715 16.717 10.1359 16.7131 10.1269L18.5467 9.32818C18.4114 9.0178 18.1925 8.75087 17.9846 8.53829C17.767 8.31581 17.5084 8.09962 17.2342 7.8962C16.6855 7.48912 16.0162 7.0902 15.3451 6.75181C14.6753 6.41406 13.9705 6.11991 13.3458 5.93679C13.0348 5.84559 12.718 5.77429 12.4205 5.74562C12.149 5.71946 11.771 5.71521 11.4153 5.86905L12.2092 7.70472ZM18.6033 9.95643C18.8051 9.09804 18.581 8.26443 18.1829 7.56369C17.7853 6.86399 17.1831 6.23496 16.4962 5.71591C15.1364 4.68846 13.2562 3.95332 11.4697 4.03741L11.5638 6.0352C12.7864 5.97765 14.2182 6.50139 15.2905 7.31161C15.8196 7.7114 16.2134 8.1459 16.444 8.55171C16.674 8.95648 16.7101 9.27034 16.6564 9.49869L18.6033 9.95643ZM11.7692 6.00392C11.8279 5.9886 11.9067 5.97686 12.0361 5.96682C12.1248 5.95993 12.3566 5.94756 12.5128 5.93203C12.9037 5.8932 13.4169 5.79591 13.9238 5.42287L12.7383 3.81207C12.642 3.88294 12.5364 3.91984 12.3151 3.94183C12.1653 3.95672 12.0926 3.95642 11.8814 3.97281C11.7108 3.98605 11.494 4.00878 11.2643 4.06869L11.7692 6.00392ZM13.924 5.42269C14.6967 4.8537 15.5393 4.40346 16.496 3.80354L15.4334 2.10916C14.6306 2.61259 13.5852 3.18843 12.7381 3.81224L13.924 5.42269ZM16.3635 2.03934C14.7356 1.33124 13.1228 1.12924 11.8352 1.32601C11.1938 1.42402 10.587 1.62848 10.0997 1.96405C9.60615 2.3039 9.191 2.81523 9.09294 3.49375L11.0724 3.77983C11.0726 3.77827 11.0735 3.76745 11.0906 3.74292C11.1096 3.71552 11.1513 3.66822 11.234 3.61126C11.4053 3.49331 11.7021 3.36957 12.1373 3.30306C13.0028 3.17079 14.2348 3.29444 15.5658 3.87336L16.3635 2.03934ZM11.0814 3.58575C10.9907 1.81123 10.2283 0.591998 9.08696 -0.136607C8.00783 -0.825514 6.70218 -1.00469 5.59717 -0.999908L5.60582 1.00007C6.53671 0.996045 7.39608 1.15675 8.01077 1.54917C8.56328 1.90188 9.02352 2.50541 9.08396 3.68784L11.0814 3.58575ZM5.60149 -0.999917H5.60014V1.00008H5.60149V-0.999917Z" fill="#00B4A5" mask="url(#path-1-inside-1_1507_7783)"/>
</svg>
