<svg width="26" height="26" viewBox="0 0 26 26" fill="none" xmlns="http://www.w3.org/2000/svg">
<path d="M7.79199 21.3335H18.2087" stroke="#00B4A5" stroke-width="2" stroke-linecap="round" stroke-linejoin="round"/>
<path d="M10.917 21.3332C16.6462 18.729 11.7503 14.6665 14.042 10.9165" stroke="#00B4A5" stroke-width="2" stroke-linecap="round" stroke-linejoin="round"/>
<path d="M10.3962 10.2919C11.542 11.1252 12.2712 12.5835 12.792 14.146C10.7087 14.5627 9.14616 14.5627 7.79199 13.8335C6.54199 13.2085 5.39616 11.8544 4.66699 9.45853C7.58366 8.9377 9.25033 9.45853 10.3962 10.2919Z" stroke="#00B4A5" stroke-width="2" stroke-linecap="round" stroke-linejoin="round"/>
<path d="M15.1878 6.74984C14.3936 7.99104 13.9941 9.44374 14.0419 10.9165C16.0211 10.8123 17.4794 10.2915 18.5211 9.45817C19.5628 8.4165 20.1878 7.06234 20.2919 4.6665C17.4794 4.77067 16.1253 5.70817 15.1878 6.74984Z" stroke="#00B4A5" stroke-width="2" stroke-linecap="round" stroke-linejoin="round"/>
</svg>
