<svg width="20" height="20" viewBox="0 0 20 20" fill="none" xmlns="http://www.w3.org/2000/svg">
<path d="M13.8033 4.96234L12.891 5.3718L13.8033 4.96234ZM10 9.83333H5V11.8333H10V9.83333ZM15 9.83333H10V11.8333H15V9.83333ZM16.5 8.33333C16.5 9.16176 15.8284 9.83333 15 9.83333V11.8333C16.933 11.8333 18.5 10.2663 18.5 8.33333H16.5ZM15 6.83333C15.8284 6.83333 16.5 7.50491 16.5 8.33333H18.5C18.5 6.40034 16.933 4.83333 15 4.83333V6.83333ZM14.7156 4.55288C13.9088 2.75526 12.1021 1.5 10 1.5V3.5C11.2859 3.5 12.3949 4.26653 12.891 5.3718L14.7156 4.55288ZM10 1.5C7.89792 1.5 6.09118 2.75526 5.28439 4.55288L7.10904 5.3718C7.6051 4.26653 8.71411 3.5 10 3.5V1.5ZM5 4.83333C3.067 4.83333 1.5 6.40034 1.5 8.33333H3.5C3.5 7.50491 4.17157 6.83333 5 6.83333V4.83333ZM1.5 8.33333C1.5 10.2663 3.067 11.8333 5 11.8333V9.83333C4.17157 9.83333 3.5 9.16176 3.5 8.33333H1.5ZM5.28439 4.55288C5.23645 4.65969 5.16961 4.73962 5.10903 4.78595C5.05281 4.82894 5.01712 4.83333 5 4.83333V6.83333C6.04406 6.83333 6.78338 6.09742 7.10904 5.3718L5.28439 4.55288ZM15 4.83333C14.9829 4.83333 14.9472 4.82894 14.891 4.78595C14.8304 4.73962 14.7636 4.65969 14.7156 4.55288L12.891 5.3718C13.2166 6.09742 13.9559 6.83333 15 6.83333V4.83333Z" fill="#00B4A5"/>
<path d="M10 15.8332V14.1665" stroke="#00B4A5" stroke-width="2" stroke-linecap="round"/>
<path d="M14.167 16.6665V14.1665" stroke="#00B4A5" stroke-width="2" stroke-linecap="round"/>
<path d="M5.83301 17.4998V14.1665" stroke="#00B4A5" stroke-width="2" stroke-linecap="round"/>
</svg>
