<svg width="20" height="20" viewBox="0 0 20 20" fill="none" xmlns="http://www.w3.org/2000/svg">
<g clip-path="url(#clip0_1507_7820)">
<path d="M16.4025 13.5692C15.375 13.5142 14.8608 12.2917 14.6108 11.5417C14.3892 10.9025 14.0558 9.7775 13.8058 9.0975C13.5142 8.30583 13.4308 8.25 13.2642 8.25C12.9167 8.25 12.6525 9.23583 12.3892 9.9725C11.8333 11.5 11.4167 13.1808 9.94417 13.1808C8.66667 13.1808 8.0975 12.1942 7.69417 11.6108C7.31917 11.0558 7.0975 10.9308 6.75 10.9308C6.30583 10.9308 6.0975 11.3192 5.69417 12C5.45833 12.3892 5.19417 12.7917 4.88917 13.0558C4.80583 13.125 4.11083 13.6667 3.45833 13.5833C3.08333 13.5275 2.81917 13.3058 2.81917 12.9308C2.81917 12.4167 3.38917 12.3192 3.70833 12.1942C3.98583 12.0975 4.31917 11.5975 4.48583 11.3192C4.93083 10.5558 5.5 9.55583 6.7775 9.55583C7.9025 9.55583 8.44417 10.2775 8.86083 10.8475C9.23583 11.3608 9.45833 11.7775 9.88917 11.7917C10.25 11.8058 10.75 10.4442 11.0417 9.5C11.4858 8.05583 12.0692 6.7225 13.2358 6.7225C14.8058 6.7225 15.2642 8.91667 15.75 10.5975C15.8192 10.8475 15.9858 11.375 16.0275 11.4442C16.25 11.9167 16.4308 12.2225 16.625 12.3192C16.8475 12.4442 17.2083 12.6808 17.0975 13.0975C17.0275 13.4167 16.7358 13.5833 16.4025 13.5692ZM10 0C4.4725 0 0 4.4725 0 10C0 15.5275 4.4725 20 10 20C15.5275 20 20 15.5275 20 10C20 4.4725 15.5275 0 10 0ZM10 18.3475C8.90373 18.3477 7.81816 18.132 6.80529 17.7125C5.79243 17.2931 4.87212 16.6782 4.09694 15.9031C3.32176 15.1279 2.70689 14.2076 2.28747 13.1947C1.86805 12.1818 1.65228 11.0963 1.6525 10C1.65228 8.90373 1.86805 7.81816 2.28747 6.80529C2.70689 5.79243 3.32176 4.87212 4.09694 4.09694C4.87212 3.32176 5.79243 2.70689 6.80529 2.28747C7.81816 1.86805 8.90373 1.65228 10 1.6525C11.0963 1.65228 12.1818 1.86805 13.1947 2.28747C14.2076 2.70689 15.1279 3.32176 15.9031 4.09694C16.6782 4.87212 17.2931 5.79243 17.7125 6.80529C18.132 7.81816 18.3477 8.90373 18.3475 10C18.3477 11.0963 18.132 12.1818 17.7125 13.1947C17.2931 14.2076 16.6782 15.1279 15.9031 15.9031C15.1279 16.6782 14.2076 17.2931 13.1947 17.7125C12.1818 18.132 11.0963 18.3477 10 18.3475Z" fill="#00B4A5"/>
</g>
<defs>
<clipPath id="clip0_1507_7820">
<rect width="20" height="20" fill="white"/>
</clipPath>
</defs>
</svg>
