<svg width="33" height="32" viewBox="0 0 33 32" fill="none" xmlns="http://www.w3.org/2000/svg">
<path d="M11.0013 16C11.0013 13.0546 13.4631 10.6662 16.5007 10.6662C19.5382 10.6662 22.0013 13.0546 22.0013 16C22.0013 18.9454 19.5382 21.3338 16.5007 21.3338C13.4631 21.3338 11.0013 18.9454 11.0013 16ZM8.02775 16C8.02775 20.5376 11.821 24.2158 16.5007 24.2158C21.1803 24.2158 24.9736 20.5376 24.9736 16C24.9736 11.4624 21.1803 7.78417 16.5007 7.78417C11.821 7.78417 8.02775 11.4624 8.02775 16ZM23.3289 7.45848C23.3289 8.51826 24.2152 9.379 25.3095 9.379C26.4024 9.379 27.2901 8.51826 27.2901 7.45848C27.2901 6.39871 26.4037 5.53926 25.3095 5.53926C24.2152 5.53926 23.3289 6.39871 23.3289 7.45848ZM9.83376 29.0236C8.22501 28.9525 7.35066 28.6927 6.76954 28.473C5.99915 28.1822 5.45002 27.8359 4.87156 27.2763C4.29444 26.7166 3.9359 26.1842 3.63734 25.4372C3.41076 24.8737 3.14286 24.0258 3.06955 22.4659C2.98958 20.7793 2.97359 20.2727 2.97359 16C2.97359 11.7273 2.99091 11.222 3.06955 9.53409C3.14286 7.97415 3.41209 7.12763 3.63734 6.56284C3.93723 5.81583 4.29444 5.28336 4.87156 4.72246C5.44869 4.16284 5.99782 3.81519 6.76954 3.52569C7.35066 3.30598 8.22501 3.0462 9.83376 2.97512C11.5731 2.89758 12.0956 2.88207 16.5007 2.88207C20.9071 2.88207 21.4282 2.89887 23.1689 2.97512C24.7777 3.0462 25.6507 3.30727 26.2331 3.52569C27.0035 3.81519 27.5527 4.16284 28.1311 4.72246C28.7082 5.28207 29.0654 5.81583 29.3653 6.56284C29.5919 7.12633 29.8598 7.97415 29.9331 9.53409C30.0131 11.222 30.0291 11.7273 30.0291 16C30.0291 20.2714 30.0131 20.778 29.9331 22.4659C29.8598 24.0258 29.5906 24.8737 29.3653 25.4372C29.0654 26.1842 28.7082 26.7166 28.1311 27.2763C27.554 27.8359 27.0035 28.1822 26.2331 28.473C25.652 28.6927 24.7777 28.9525 23.1689 29.0236C21.4295 29.1011 20.9071 29.1166 16.5007 29.1166C12.0956 29.1166 11.5731 29.1011 9.83376 29.0236ZM9.69781 0.0969305C7.94111 0.174475 6.74155 0.444588 5.6926 0.840065C4.60766 1.24847 3.68799 1.79645 2.76966 2.68562C1.85266 3.5748 1.28753 4.46656 0.866352 5.51987C0.4585 6.537 0.179935 7.70016 0.0999637 9.40355C0.0186599 11.1095 0 11.6549 0 16C0 20.3451 0.0186599 20.8905 0.0999637 22.5964C0.179935 24.2998 0.4585 25.463 0.866352 26.4801C1.28753 27.5321 1.85133 28.4252 2.76966 29.3144C3.68666 30.2036 4.60633 30.7502 5.6926 31.1599C6.74288 31.5554 7.94111 31.8255 9.69781 31.9031C11.4585 31.9806 12.0196 32 16.5007 32C20.983 32 21.5442 31.9819 23.3035 31.9031C25.0602 31.8255 26.2598 31.5554 27.3087 31.1599C28.3937 30.7502 29.3133 30.2036 30.2317 29.3144C31.1487 28.4252 31.7125 27.5321 32.135 26.4801C32.5428 25.463 32.8227 24.2998 32.9014 22.5964C32.9813 20.8892 33 20.3451 33 16C33 11.6549 32.9813 11.1095 32.9014 9.40355C32.8214 7.70016 32.5428 6.537 32.135 5.51987C31.7125 4.46785 31.1487 3.57609 30.2317 2.68562C29.3147 1.79645 28.3937 1.24847 27.3101 0.840065C26.2598 0.444588 25.0602 0.173183 23.3049 0.0969305C21.5455 0.0193861 20.983 0 16.502 0C12.0196 0 11.4585 0.0180937 9.69781 0.0969305Z" fill="white"/>
</svg>
