<svg width="36" height="36" viewBox="0 0 36 36" fill="none" xmlns="http://www.w3.org/2000/svg">
<circle cx="18" cy="18" r="18" fill="#00B4A5" fill-opacity="0.25"/>
<path d="M14.4 9H9.9C9.66131 9 9.43239 9.09482 9.2636 9.2636C9.09482 9.43239 9 9.66131 9 9.9V14.4C9 14.6387 9.09482 14.8676 9.2636 15.0364C9.43239 15.2052 9.66131 15.3 9.9 15.3C10.1387 15.3 10.3676 15.2052 10.5364 15.0364C10.7052 14.8676 10.8 14.6387 10.8 14.4V10.8H14.4C14.6387 10.8 14.8676 10.7052 15.0364 10.5364C15.2052 10.3676 15.3 10.1387 15.3 9.9C15.3 9.66131 15.2052 9.43239 15.0364 9.2636C14.8676 9.09482 14.6387 9 14.4 9ZM14.4 25.2H10.8V21.6C10.8 21.3613 10.7052 21.1324 10.5364 20.9636C10.3676 20.7948 10.1387 20.7 9.9 20.7C9.66131 20.7 9.43239 20.7948 9.2636 20.9636C9.09482 21.1324 9 21.3613 9 21.6V26.1C9 26.3387 9.09482 26.5676 9.2636 26.7364C9.43239 26.9052 9.66131 27 9.9 27H14.4C14.6387 27 14.8676 26.9052 15.0364 26.7364C15.2052 26.5676 15.3 26.3387 15.3 26.1C15.3 25.8613 15.2052 25.6324 15.0364 25.4636C14.8676 25.2948 14.6387 25.2 14.4 25.2ZM26.1 9H21.6C21.3613 9 21.1324 9.09482 20.9636 9.2636C20.7948 9.43239 20.7 9.66131 20.7 9.9C20.7 10.1387 20.7948 10.3676 20.9636 10.5364C21.1324 10.7052 21.3613 10.8 21.6 10.8H25.2V14.4C25.2 14.6387 25.2948 14.8676 25.4636 15.0364C25.6324 15.2052 25.8613 15.3 26.1 15.3C26.3387 15.3 26.5676 15.2052 26.7364 15.0364C26.9052 14.8676 27 14.6387 27 14.4V9.9C27 9.66131 26.9052 9.43239 26.7364 9.2636C26.5676 9.09482 26.3387 9 26.1 9ZM26.1 20.7C25.8613 20.7 25.6324 20.7948 25.4636 20.9636C25.2948 21.1324 25.2 21.3613 25.2 21.6V25.2H21.6C21.3613 25.2 21.1324 25.2948 20.9636 25.4636C20.7948 25.6324 20.7 25.8613 20.7 26.1C20.7 26.3387 20.7948 26.5676 20.9636 26.7364C21.1324 26.9052 21.3613 27 21.6 27H26.1C26.3387 27 26.5676 26.9052 26.7364 26.7364C26.9052 26.5676 27 26.3387 27 26.1V21.6C27 21.3613 26.9052 21.1324 26.7364 20.9636C26.5676 20.7948 26.3387 20.7 26.1 20.7Z" fill="#00B4A5"/>
</svg>
