<svg width="36" height="36" viewBox="0 0 36 36" fill="none" xmlns="http://www.w3.org/2000/svg">
<circle cx="18" cy="18" r="18" fill="#00B4A5" fill-opacity="0.25"/>
<path fill-rule="evenodd" clip-rule="evenodd" d="M17.8295 9C17.3777 9 17.0114 9.36632 17.0114 9.81818V10.6364H16.1932C14.8548 10.6364 13.7867 11.1303 13.0588 11.9244C12.3429 12.7054 12 13.7278 12 14.7273C12 15.7267 12.3429 16.7492 13.0588 17.5301C13.1932 17.6767 13.3392 17.8131 13.4963 17.9381C14.1903 18.4898 15.1019 18.8182 16.1932 18.8182H17.0114V23.7273H16.1932C15.5182 23.7273 15.0663 23.5609 14.755 23.3533C14.4385 23.1424 14.2174 22.8553 14.0614 22.5432C13.9037 22.228 13.8208 21.9028 13.7786 21.6496C13.7577 21.5239 13.742 21.3964 13.7386 21.2689C13.7365 20.819 13.3709 20.4545 12.9205 20.4545C12.4686 20.4545 12.1023 20.8208 12.1023 21.2727C12.1023 21.3277 12.1042 21.3805 12.1107 21.4716C12.1187 21.5829 12.1342 21.7365 12.1645 21.9186C12.2246 22.279 12.3463 22.772 12.5977 23.275C12.8508 23.7811 13.2433 24.3122 13.8473 24.7149C14.4564 25.121 15.2318 25.3636 16.1932 25.3636H17.0114V26.1818C17.0114 26.6337 17.3777 27 17.8295 27C18.2814 27 18.6477 26.6337 18.6477 26.1818V25.3636H19.4659C20.8043 25.3636 21.8723 24.8697 22.6003 24.0756C23.3162 23.2946 23.6591 22.2722 23.6591 21.2727C23.6591 20.2732 23.3162 19.2508 22.6003 18.4699C21.8723 17.6758 20.8043 17.1818 19.4659 17.1818H18.6477V12.2727H19.4659C20.1409 12.2727 20.5928 12.4391 20.9041 12.6467C21.2206 12.8576 21.4417 13.1448 21.5978 13.4568C21.7553 13.772 21.8382 14.0972 21.8804 14.3504C21.9014 14.4761 21.9171 14.6036 21.9205 14.7311C21.9227 15.1811 22.2881 15.5455 22.7386 15.5455C23.1852 15.5455 23.5568 15.1727 23.5568 14.7264C23.5567 14.6717 23.5549 14.619 23.5483 14.5284C23.5404 14.4171 23.5249 14.2635 23.4946 14.0814C23.4345 13.721 23.3128 13.228 23.0613 12.725C22.8083 12.2189 22.4158 11.6878 21.8118 11.2851C21.2027 10.8791 20.4273 10.6364 19.4659 10.6364H18.6477V9.81818C18.6477 9.36632 18.2814 9 17.8295 9ZM17.0114 12.2727H16.1932C15.2816 12.2727 14.6621 12.597 14.2651 13.0301C13.8559 13.4765 13.6364 14.0904 13.6364 14.7273C13.6364 15.3642 13.8559 15.9781 14.2651 16.4244C14.6621 16.8576 15.2816 17.1818 16.1932 17.1818H17.0114V12.2727ZM18.6477 18.8182V23.7273H19.4659C20.3775 23.7273 20.997 23.403 21.394 22.9699C21.8031 22.5236 22.0227 21.9096 22.0227 21.2727C22.0227 20.6359 21.8031 20.0219 21.394 19.5756C20.997 19.1424 20.3775 18.8182 19.4659 18.8182H18.6477Z" fill="#00B4A5"/>
</svg>
