<svg width="77" height="219" viewBox="0 0 77 219" fill="none" xmlns="http://www.w3.org/2000/svg">
<path d="M14.268 29C15.0378 30.3333 16.9622 30.3333 17.7321 29L28.1244 11C28.8942 9.66667 27.9319 8 26.3923 8L5.60769 8C4.06809 8 3.10584 9.66667 3.87564 11L14.268 29Z" fill="#00B4A5" fill-opacity="0.8"/>
<path d="M14.268 61C15.0378 62.3333 16.9622 62.3333 17.7321 61L28.1244 43C28.8942 41.6667 27.9319 40 26.3923 40L5.60769 40C4.06809 40 3.10584 41.6667 3.87564 43L14.268 61Z" fill="#00B4A5" fill-opacity="0.65"/>
<path d="M14.268 93C15.0378 94.3333 16.9622 94.3333 17.7321 93L28.1244 75C28.8942 73.6667 27.9319 72 26.3923 72L5.60769 72C4.06809 72 3.10584 73.6667 3.87564 75L14.268 93Z" fill="#00B4A5" fill-opacity="0.5"/>
<path d="M14.268 125C15.0378 126.333 16.9622 126.333 17.7321 125L28.1244 107C28.8942 105.667 27.9319 104 26.3923 104L5.60769 104C4.06809 104 3.10584 105.667 3.87564 107L14.268 125Z" fill="#00B4A5" fill-opacity="0.25"/>
<path d="M14.268 157C15.0378 158.333 16.9622 158.333 17.7321 157L28.1244 139C28.8942 137.667 27.9319 136 26.3923 136H5.60769C4.06809 136 3.10584 137.667 3.87564 139L14.268 157Z" fill="#00B4A5" fill-opacity="0.1"/>
<path d="M59.268 88C60.0378 89.3333 61.9622 89.3333 62.7321 88L73.1244 70C73.8942 68.6667 72.9319 67 71.3923 67L50.6077 67C49.0681 67 48.1058 68.6667 48.8756 70L59.268 88Z" fill="#00B4A5" fill-opacity="0.8"/>
<path d="M59.268 120C60.0378 121.333 61.9622 121.333 62.7321 120L73.1244 102C73.8942 100.667 72.9319 99 71.3923 99L50.6077 99C49.0681 99 48.1058 100.667 48.8756 102L59.268 120Z" fill="#00B4A5" fill-opacity="0.65"/>
<path d="M59.268 152C60.0378 153.333 61.9622 153.333 62.7321 152L73.1244 134C73.8942 132.667 72.9319 131 71.3923 131H50.6077C49.0681 131 48.1058 132.667 48.8756 134L59.268 152Z" fill="#00B4A5" fill-opacity="0.5"/>
<path d="M59.268 184C60.0378 185.333 61.9622 185.333 62.7321 184L73.1244 166C73.8942 164.667 72.9319 163 71.3923 163H50.6077C49.0681 163 48.1058 164.667 48.8756 166L59.268 184Z" fill="#00B4A5" fill-opacity="0.25"/>
<path d="M59.268 216C60.0378 217.333 61.9622 217.333 62.7321 216L73.1244 198C73.8942 196.667 72.9319 195 71.3923 195H50.6077C49.0681 195 48.1058 196.667 48.8756 198L59.268 216Z" fill="#00B4A5" fill-opacity="0.1"/>
</svg>
