<svg width="36" height="36" viewBox="0 0 36 36" fill="none" xmlns="http://www.w3.org/2000/svg">
<circle cx="18" cy="18" r="18" fill="#00B4A5" fill-opacity="0.25"/>
<path d="M9 18H27M20.25 11.25C20.25 12.4926 19.2427 13.5 18 13.5C16.7573 13.5 15.75 12.4926 15.75 11.25C15.75 10.0074 16.7573 9 18 9C19.2427 9 20.25 10.0074 20.25 11.25ZM20.25 24.75C20.25 25.9927 19.2427 27 18 27C16.7573 27 15.75 25.9927 15.75 24.75C15.75 23.5073 16.7573 22.5 18 22.5C19.2427 22.5 20.25 23.5073 20.25 24.75Z" stroke="#00B4A5" stroke-width="1.5" stroke-linecap="round" stroke-linejoin="round"/>
</svg>
