<svg width="28" height="32" viewBox="0 0 28 32" fill="none" xmlns="http://www.w3.org/2000/svg">
<path d="M20.0413 0L14.6964 0.00100765V22.0057C14.6982 22.9289 14.4244 23.8316 13.91 24.599C13.3955 25.3664 12.6637 25.9637 11.8077 26.3148C10.9538 26.67 10.0132 26.7635 9.10572 26.5835C8.19827 26.4035 7.36511 25.9581 6.71243 25.304C6.05634 24.6526 5.60951 23.8212 5.42885 22.9156C5.2482 22.01 5.3419 21.0713 5.69802 20.219C6.0503 19.3657 6.64931 18.6363 7.41872 18.1238C8.18814 17.6112 9.09312 17.3387 10.0184 17.341H11.7471V12.0101H10.0194C8.03748 12.0122 6.10056 12.5995 4.45281 13.698C2.80506 14.7964 1.52024 16.3568 0.76032 18.1824C0.00370329 20.0093 -0.193759 22.0186 0.192821 23.9572C0.579402 25.8958 1.53272 27.6769 2.93262 29.076C4.33554 30.4719 6.12134 31.4225 8.065 31.8078C10.0087 32.1932 12.0232 31.9962 13.8548 31.2416C15.6848 30.4833 17.2489 29.2017 18.3498 27.5583C19.4508 25.9149 20.0393 23.9832 20.0413 22.0068V9.80418C21.4962 10.6688 23.2139 11.3037 25.3286 11.3037H28V5.97179H25.3286C22.3227 5.97179 21.5083 4.75244 20.795 3.20558C20.0817 1.65973 20.0413 0 20.0413 0Z" fill="white"/>
</svg>
