<svg width="189" height="95" viewBox="0 0 189 95" fill="none" xmlns="http://www.w3.org/2000/svg">
<path d="M36.0369 0C45.9875 0 54.9968 4.0581 61.5183 10.6189C68.0399 17.1798 72.0738 26.243 72.0738 36.2535C72.0738 46.264 68.0399 55.3274 61.5183 61.8882C54.9968 68.449 45.9875 72.5071 36.0369 72.5071C26.0861 72.5071 17.0771 68.449 10.5555 61.8882C4.03385 55.3274 0 46.264 0 36.2535C0 26.243 4.03385 17.1798 10.5555 10.6189C17.0771 4.0581 26.0861 0 36.0369 0ZM50.9654 21.2354C47.1454 17.3924 41.8673 15.0153 36.0369 15.0153C30.2066 15.0153 24.9285 17.3924 21.1085 21.2354C17.2885 25.0784 14.9257 30.3882 14.9257 36.2535C14.9257 42.119 17.2885 47.4287 21.1085 51.2718C24.9285 55.1148 30.2066 57.4918 36.0369 57.4918C41.8673 57.4918 47.1454 55.1148 50.9654 51.2718C54.7854 47.4287 57.1482 42.119 57.1482 36.2535C57.1482 30.3882 54.7854 25.0784 50.9654 21.2354Z" fill="white"/>
<path fill-rule="evenodd" clip-rule="evenodd" d="M72.7416 44.8985V86.266C72.7416 90.5443 69.2617 94.0455 65.0086 94.0455C60.7554 94.0455 57.2754 90.5449 57.2754 86.266C57.2754 68.9418 57.2754 51.6173 57.2754 34.293L72.7416 44.8985Z" fill="white"/>
<path fill-rule="evenodd" clip-rule="evenodd" d="M188.968 0H188.968V64.7278C188.968 69.0065 185.488 72.5071 181.235 72.5071H181.235C176.982 72.5071 173.502 69.0065 173.502 64.7278V15.559C173.502 7.00147 180.462 0 188.968 0Z" fill="white"/>
<path d="M140.87 39.2172C142.54 39.2172 143.893 37.8558 143.893 36.1765C143.893 34.4971 142.54 33.1357 140.87 33.1357C139.201 33.1357 137.848 34.4971 137.848 36.1765C137.848 37.8558 139.201 39.2172 140.87 39.2172Z" fill="white"/>
<path d="M150.359 39.3715C152.028 39.3715 153.381 38.0104 153.381 36.3313C153.381 34.6522 152.028 33.291 150.359 33.291C148.69 33.291 147.337 34.6522 147.337 36.3313C147.337 38.0104 148.69 39.3715 150.359 39.3715Z" fill="white"/>
<path d="M160.071 39.3371C161.74 39.3371 163.093 37.9757 163.093 36.2965C163.093 34.6172 161.74 33.2559 160.071 33.2559C158.401 33.2559 157.048 34.6172 157.048 36.2965C157.048 37.9757 158.401 39.3371 160.071 39.3371Z" fill="white"/>
<path d="M93.3122 0C103.263 0 112.272 4.0581 118.794 10.6189C119.526 11.3557 120.386 12.2198 121.053 13.0175C118.7 16.1324 116.844 19.5481 115.378 23.491C111.496 33.0473 116.977 29.3108 108.241 21.2354C104.421 17.3924 99.1426 15.0153 93.3122 15.0153C87.4818 15.0153 82.2038 17.3924 78.3838 21.2354C74.5638 25.0784 72.201 30.3882 72.201 36.2535C72.201 42.119 74.5638 47.4287 78.3838 51.2718C82.2038 55.1148 87.4818 57.4918 93.3122 57.4918C99.1426 57.4918 104.421 55.1148 108.241 51.2718C112.061 47.4287 114.423 42.119 114.423 36.2535C114.433 28.5406 117.51 21.2018 121.588 14.767L121.59 14.7649L121.609 14.734L121.631 14.7011L121.635 14.6947L121.651 14.6686L121.672 14.6363L121.679 14.6251L121.693 14.604L121.714 14.572L121.724 14.5565L121.734 14.54L121.755 14.5083L121.768 14.4887L121.776 14.4768L121.796 14.4455L121.812 14.4216L121.816 14.4142L121.837 14.3831L121.855 14.3553L121.857 14.3523L121.877 14.3216L121.898 14.2912L121.898 14.2898L121.918 14.2609L121.938 14.2305C126.586 20.3356 129.349 27.97 129.349 36.2535C129.349 46.264 125.315 55.3274 118.794 61.8882C112.272 68.449 103.263 72.5071 93.3122 72.5071C83.3614 72.5071 74.3524 68.449 67.8307 61.8882C61.3092 55.3274 57.2754 46.264 57.2754 36.2535C57.2754 26.243 61.3092 17.1798 67.8307 10.6189C74.3524 4.0581 83.3614 0 93.3122 0Z" fill="white"/>
<path d="M150.47 0C160.421 0 169.43 4.0581 175.952 10.6189C182.474 17.1798 186.507 26.243 186.507 36.2535C186.507 46.264 182.474 55.3274 175.952 61.8882C169.43 68.449 160.421 72.5071 150.47 72.5071C140.52 72.5071 131.511 68.449 124.989 61.8882C118.467 55.3274 114.434 46.264 114.434 36.2535C114.434 26.243 118.467 17.1798 124.989 10.6189C131.511 4.0581 140.52 0 150.47 0ZM165.399 21.2354C161.579 17.3924 156.301 15.0153 150.47 15.0153C144.64 15.0153 139.362 17.3924 135.542 21.2354C131.722 25.0784 129.359 30.3882 129.359 36.2535C129.359 42.119 131.722 47.4287 135.542 51.2718C139.362 55.1148 144.64 57.4918 150.47 57.4918C153.791 57.4918 156.932 56.7204 159.727 55.3469L168.57 56.0735L167.657 48.5912C170.128 45.1138 171.582 40.8547 171.582 36.2535C171.582 30.3882 169.219 25.0784 165.399 21.2354Z" fill="white"/>
</svg>
