<svg width="20" height="20" viewBox="0 0 20 20" fill="none" xmlns="http://www.w3.org/2000/svg">
<path d="M5.85 17H3C2.44772 17 2 16.5523 2 16V10C2 9.44772 2.44772 9 3 9H5.85C5.93284 9 6 9.06716 6 9.15V16.85C6 16.9328 5.93284 17 5.85 17Z" stroke="#00B4A5" stroke-width="2" stroke-linecap="round"/>
<path d="M6 9L7.83205 6.25192C7.94156 6.08766 8 5.89465 8 5.69722V3C8 2.44772 8.44772 2 9 2H10C11.1046 2 12 2.89543 12 4V9" stroke="#00B4A5" stroke-width="2" stroke-linecap="round"/>
<path d="M10 9H14.7655C15.9575 9 16.8849 10.0361 16.7532 11.2209L16.1977 16.2209C16.0851 17.2337 15.229 18 14.2099 18H10.4142C10.149 18 9.89464 17.8946 9.70711 17.7071L9.29289 17.2929C9.10536 17.1054 8.851 17 8.58579 17H6" stroke="#00B4A5" stroke-width="2" stroke-linecap="round"/>
</svg>
