<svg width="20" height="20" viewBox="0 0 20 20" fill="none" xmlns="http://www.w3.org/2000/svg">
<path d="M8.45362 5.52303C9.10913 3.88886 9.43688 3.07178 10.0005 3.07178C10.5641 3.07178 10.8918 3.88886 11.5473 5.52303L11.5779 5.59912C11.9482 6.52235 12.1334 6.98396 12.5107 7.26453C12.8881 7.5451 13.3835 7.58947 14.3743 7.6782L14.5534 7.69424C16.1749 7.83946 16.9856 7.91207 17.1591 8.42789C17.3326 8.94371 16.7305 9.4915 15.5263 10.5871L15.1244 10.9527C14.5148 11.5073 14.21 11.7846 14.068 12.1481C14.0415 12.2158 14.0194 12.2853 14.002 12.356C13.9086 12.7349 13.9979 13.1371 14.1764 13.9417L14.2319 14.1921C14.56 15.6707 14.724 16.4101 14.4376 16.7289C14.3306 16.8481 14.1915 16.9339 14.037 16.9761C13.6235 17.0889 13.0364 16.6105 11.8623 15.6538C11.0913 15.0255 10.7059 14.7114 10.2633 14.6408C10.0892 14.613 9.91179 14.613 9.7377 14.6408C9.29511 14.7114 8.90962 15.0255 8.13865 15.6538C6.96452 16.6105 6.37746 17.0889 5.96396 16.9761C5.80944 16.9339 5.67035 16.8481 5.56333 16.7289C5.27693 16.4101 5.44096 15.6707 5.76902 14.1921L5.82459 13.9417C6.00309 13.1371 6.09235 12.7349 5.99897 12.356C5.98155 12.2853 5.95952 12.2158 5.93302 12.1481C5.79096 11.7846 5.48616 11.5073 4.87657 10.9527L4.47467 10.5871C3.27047 9.4915 2.66837 8.94371 2.84185 8.42789C3.01533 7.91207 3.82609 7.83946 5.4476 7.69424L5.62671 7.6782C6.61748 7.58947 7.11286 7.5451 7.49023 7.26453C7.86761 6.98396 8.05277 6.52235 8.4231 5.59912L8.45362 5.52303Z" stroke="#00B4A5" stroke-width="2"/>
</svg>
