<svg width="23" height="19" viewBox="0 0 23 19" fill="none" xmlns="http://www.w3.org/2000/svg">
<path d="M12.8632 11.9102H5.59047C4.62604 11.9102 3.70112 12.2933 3.01917 12.9752C2.33722 13.6572 1.9541 14.5821 1.9541 15.5465V17.3647" stroke="#00B4A5" stroke-width="2" stroke-linecap="round" stroke-linejoin="round"/>
<path d="M9.22718 8.27273C11.2355 8.27273 12.8635 6.64467 12.8635 4.63636C12.8635 2.62806 11.2355 1 9.22718 1C7.21888 1 5.59082 2.62806 5.59082 4.63636C5.59082 6.64467 7.21888 8.27273 9.22718 8.27273Z" stroke="#00B4A5" stroke-width="2" stroke-linecap="round" stroke-linejoin="round"/>
<path d="M17.1357 9.18359C14.452 9.18359 12.2266 11.3763 12.2266 14.0927C12.2266 16.7763 14.4193 19.0018 17.1357 19.0018C19.852 19.0018 22.0447 16.809 22.0447 14.0927C22.0447 11.3763 19.8193 9.18359 17.1357 9.18359ZM19.5247 13.4709L18.6084 14.3872C18.5102 14.4854 18.4775 14.5836 18.4775 14.649L18.7066 16.0236C18.772 16.4163 18.412 16.1872 18.412 16.1872L17.2993 15.5981C17.1357 15.5 16.972 15.5981 16.972 15.5981L15.8266 16.1872C15.532 16.3509 15.532 16.1872 15.532 16.0563L15.7611 14.78C15.7938 14.5181 15.6629 14.42 15.6629 14.3872L14.8447 13.6018L14.7466 13.5036C14.6484 13.4054 14.5829 13.2418 14.9429 13.1763L16.0884 13.0127C16.252 12.98 16.3502 12.9145 16.3829 12.849L17.0047 11.5727C17.0375 11.4745 17.1684 11.3763 17.2993 11.6381L17.9211 12.8818C17.9538 12.9472 18.052 12.98 18.1175 13.0127H18.2157L19.4266 13.1763H19.4593C19.5247 13.209 19.7538 13.2745 19.5247 13.4709Z" fill="#00B4A5"/>
</svg>
