<svg width="128" height="128" viewBox="0 0 128 128" fill="none" xmlns="http://www.w3.org/2000/svg">
<path d="M112 60H113.984C114.248 60.0021 114.51 59.9519 114.754 59.8524C114.999 59.7528 115.221 59.6058 115.409 59.4199C115.596 59.234 115.745 59.0128 115.846 58.7691C115.948 58.5254 116 58.264 116 58C115.989 57.4631 115.768 56.9521 115.383 56.5777C114.998 56.2032 114.481 55.9957 113.944 56H62.056C61.5191 55.9957 61.0021 56.2032 60.6172 56.5777C60.2323 56.9521 60.0105 57.4631 60 58C60 59.096 60.928 60 62.056 60H64V72H62.056C61.5191 71.9957 61.0021 72.2032 60.6172 72.5777C60.2323 72.9521 60.0105 73.4631 60 74C60 75.096 60.928 76 62.056 76H113.944C114.481 76.0043 114.998 75.7968 115.383 75.4223C115.768 75.0479 115.989 74.5369 116 74C115.989 73.4631 115.768 72.9521 115.383 72.5777C114.998 72.2032 114.481 71.9957 113.944 72H112V60ZM112.04 112H15.96C11.56 112 8 115.58 8 120H120C120 115.58 116.44 112 112.04 112Z" fill="#01B6A2"/>
<path d="M95.92 44.12C95.92 48.52 92.32 52.12 87.92 52.12C83.52 52.12 79.92 48.52 79.92 44.12C79.92 43 80.84 42.12 81.92 42.12C83.04 42.12 83.92 43 83.92 44.12C83.92 46.32 85.72 48.12 87.92 48.12C90.12 48.12 91.92 46.32 91.92 44.12C91.92 41.92 90.2 40.16 88 40.12C87.32 40.12 86.68 39.76 86.32 39.2C86.0834 38.89 85.9567 38.51 85.96 38.12C85.96 37.96 85.96 37.84 86 37.68V17.44C86 16.36 86.92 15.44 88 15.44C89.12 15.44 90 16.36 90 17.44V36.36C93.4 37.28 95.92 40.44 95.92 44.12Z" fill="#FA6E00"/>
<path d="M92.36 16H83.64C81.616 16 80 17.776 80 20C80 22.224 81.616 24 83.64 24H92.36C94.384 24 96 22.224 96 20C96 17.776 94.384 16 92.36 16Z" fill="#01B6A2"/>
<path d="M112 60H64V72H112V60Z" fill="#B8EBE5"/>
<path d="M66.8 77.92C67.16 78.16 67.56 78.28 67.96 78.28C68.6 78.28 69.2 78 69.6 77.44L87.92 51.56L106.24 77.44C106.64 78 107.24 78.28 107.88 78.28C108.249 78.2834 108.611 78.1847 108.927 77.9947C109.243 77.8046 109.5 77.5308 109.67 77.2035C109.84 76.8763 109.916 76.5083 109.889 76.1405C109.863 75.7728 109.735 75.4195 109.52 75.12L89.656 47.056C89.5685 46.9095 89.4623 46.775 89.34 46.656C89.155 46.4676 88.9339 46.3184 88.6899 46.2173C88.4459 46.1163 88.1841 46.0655 87.92 46.068C87.656 46.066 87.3943 46.117 87.1504 46.218C86.9064 46.319 86.6853 46.4679 86.5 46.656C86.3764 46.7748 86.2688 46.9093 86.18 47.056L66.32 75.12C65.68 76.04 65.88 77.28 66.8 77.92Z" fill="#9B9B9B"/>
<path d="M20 12H108C109.061 12 110.078 12.4214 110.828 13.1716C111.579 13.9217 112 14.9391 112 16C112 17.0609 111.579 18.0783 110.828 18.8284C110.078 19.5786 109.061 20 108 20H56V104H59C61.76 104 64 106.24 64 109V112H20V109C20 106.24 22.24 104 25 104H28V20H20C18.9391 20 17.9217 19.5786 17.1716 18.8284C16.4214 18.0783 16 17.0609 16 16C16 14.9391 16.4214 13.9217 17.1716 13.1716C17.9217 12.4214 18.9391 12 20 12ZM32 36.764L49.528 28H32V36.764ZM52 104V95.236L34.472 104H52ZM32 100.764L49.528 92H32V100.764ZM52 31.236L34.472 40H52V31.236ZM32 52.764L49.528 44H32V52.764ZM52 47.236L34.472 56H52V47.236ZM32 68.764L49.528 60H32V68.764ZM52 63.236L34.472 72H52V63.236ZM32 84.764L49.528 76H32V84.764ZM52 79.236L34.472 88H52V79.236Z" fill="#B8EBE5"/>
</svg>
